<svg preserveAspectRatio="none" width="100%" height="100%" overflow="visible" style="display: block;" viewBox="0 0 14 14" fill="none" xmlns="http://www.w3.org/2000/svg">
<g id="(dot)connect 1" clip-path="url(#clip0_0_5)">
<path id="Vector" d="M14 6.9993C14 7.26454 13.8946 7.51888 13.7071 7.70642C13.5196 7.89396 13.2652 7.99931 13 7.99931C12.7348 7.99931 12.4804 8.10466 12.2929 8.2922C12.1053 8.47974 12 8.73408 12 8.99932C12.0002 9.13063 11.9744 9.26077 11.9241 9.3821C11.8739 9.50344 11.8001 9.61369 11.7071 9.70644L9.70713 11.7064L7.70712 13.7064C7.51957 13.894 7.26524 13.9993 7 13.9993C6.73476 13.9993 6.48042 13.894 6.29288 13.7064C6.10534 13.5189 5.99999 13.2645 5.99999 12.9993C5.99999 12.7341 6.10534 12.4797 6.29288 12.2922L8.2929 10.2922L10.2929 8.29226C10.3856 8.19922 10.4959 8.12549 10.6172 8.0752C10.7385 8.02492 10.8687 7.99914 11 7.99931C11.2652 7.99931 11.5195 7.89396 11.7071 7.70642C11.8946 7.51888 12 7.26454 12 6.9993C12 6.73406 11.8946 6.47973 11.7071 6.29219C11.5195 6.10464 11.2652 5.99929 11 5.99929C10.8687 5.99947 10.7386 5.97369 10.6172 5.9234C10.4959 5.87318 10.3857 5.79941 10.2929 5.70641L8.2929 3.70641L6.29294 1.70645C6.19978 1.61365 6.12587 1.5034 6.07542 1.38201C6.0249 1.26061 5.99888 1.13045 5.99877 0.998979C5.99859 0.867501 6.02443 0.737295 6.07466 0.615805C6.12494 0.494315 6.19867 0.383928 6.2916 0.290959C6.38458 0.19799 6.49495 0.124266 6.61646 0.0740045C6.73797 0.0237432 6.86817 -0.002068 6.99959 -0.00195274C7.13107 -0.00183748 7.26127 0.0242017 7.38267 0.0746759C7.50406 0.12515 7.61431 0.199069 7.70712 0.2922L9.70713 2.2922L11.7071 4.2922C11.8001 4.38495 11.8739 4.49518 11.9241 4.61653C11.9744 4.73788 12.0002 4.86796 12 4.99931C12 5.26452 12.1053 5.51888 12.2929 5.70641C12.4804 5.89394 12.7348 5.99929 13 5.99929C13.1313 5.99929 13.2614 6.02519 13.3827 6.07542C13.504 6.1257 13.6142 6.19932 13.7071 6.29219C13.8 6.38505 13.8736 6.4953 13.9239 6.61664C13.9742 6.73797 14 6.86799 14 6.9993ZM9.00002 5.99929H1C0.734784 5.99929 0.480431 6.10464 0.292895 6.29219C0.105358 6.47973 0 6.73412 0 6.9993C0 7.26454 0.105358 7.51888 0.292895 7.70642C0.480431 7.89396 0.734784 7.99931 1 7.99931H9.00002C9.2652 7.99931 9.51959 7.89396 9.70713 7.70642C9.89462 7.51888 10 7.26454 10 6.9993C10 6.73412 9.89462 6.47973 9.70713 6.29219C9.51959 6.10464 9.2652 5.99929 9.00002 5.99929Z" fill="var(--fill-0, #FFFAF5)"/>
</g>
<defs>
<clipPath id="clip0_0_5">
<rect width="14" height="14" fill="white"/>
</clipPath>
</defs>
</svg>
