<svg preserveAspectRatio="none" width="100%" height="100%" overflow="visible" style="display: block;" viewBox="0 0 40.254 40" fill="none" xmlns="http://www.w3.org/2000/svg">
<g id="Group">
<path id="Vector" d="M7.28846 39.9995L7.09473 16.3715C7.32392 15.5887 10.1233 15.4985 11.1724 15.1046C16.1153 13.2472 16.878 5.89538 18.6628 1.46414C18.8896 0.900615 19.1746 0.0229647 19.8314 0.000291318C20.3333 -0.0171861 22.2958 0.756545 22.834 1.02815C25.7171 2.48256 27.0804 5.61055 26.4141 8.72767C26.1126 10.1396 24.5513 13.004 24.5636 14.1424C24.574 15.0876 25.5521 15.6284 26.3564 15.721C30.1893 16.1631 34.8236 15.3748 38.7467 15.7224C39.8034 16.0092 40.0075 17.038 40.0987 18.0134C40.5765 23.1069 39.7953 29.471 39.835 34.7903C39.8412 35.624 40.1247 36.3411 40.1058 37.2088C40.0926 37.8045 39.6848 40 38.9962 40H7.28894L7.28846 39.9995Z" fill="var(--fill-0, #C68346)"/>
<path id="Vector_2" d="M5.11443 15.7145H4.13259e-06V39.9987H5.11443V15.7145Z" fill="var(--fill-0, #C68346)"/>
</g>
</svg>
