<svg preserveAspectRatio="none" width="100%" height="100%" overflow="visible" style="display: block;" viewBox="0 0 39.9539 40" fill="none" xmlns="http://www.w3.org/2000/svg">
<path id="Vector" d="M22.8524 12.3983C23.061 12.5451 23.6888 12.4093 23.9125 12.1991L30.0486 4.61324C31.5884 2.73174 35.6158 7.16608 35.8086 8.34127C35.9237 9.04114 35.4827 9.78656 35.0201 10.2913C33.4628 11.9902 30.3073 13.689 28.5089 15.3749C28.1526 15.709 27.4492 16.2133 27.5882 16.7494L28.3367 17.3277C31.0655 17.1492 34.2449 16.2745 36.9203 16.2027C38.3883 16.1631 39.4433 16.5478 39.766 18.0851C40.0997 19.6749 40.2194 23.4227 38.0831 23.7609C35.1462 23.7457 32.2513 23.0173 29.3374 22.8319C28.3031 22.7661 27.1693 22.6603 27.6812 24.0135C29.6629 25.711 32.1707 27.24 34.0672 28.9858C35.2852 30.1071 36.3665 30.7463 35.422 32.458C35.1545 32.9425 32.8308 35.3417 32.3871 35.5722C30.9067 36.3411 30.1798 35.5303 29.2283 34.5318C27.3581 32.5689 25.7299 29.8462 23.9112 27.7802C23.409 27.2695 22.6517 27.7535 22.5942 28.3936L23.7855 37.3883C23.9949 40.2472 19.9796 40.1643 17.9924 39.8482C17.1776 39.7185 16.3076 38.9445 16.1925 38.1011C15.8974 35.9444 17.0482 31.9495 17.1472 29.5702C17.2342 27.4798 16.9971 26.8181 15.3731 28.5045C13.6511 30.2926 11.6772 33.924 9.89622 35.3315C8.94152 36.0857 8.30121 35.9734 7.28068 35.4157C5.9034 34.663 3.70951 32.3011 4.24026 30.6225C4.66698 29.2738 10.3464 25.705 11.7094 24.3697C13.1719 22.9373 12.2126 22.7702 10.6323 22.8199C8.08118 22.9009 3.85083 24.2086 1.52206 23.6592C1.33057 23.6141 0.779106 23.3661 0.649756 23.2364C-0.197235 22.3897 -0.598635 16.2179 1.90735 16.2087L11.598 17.2781C12.4478 17.0857 12.7069 16.6523 12.0653 15.9653C10.508 14.2982 7.47125 12.6109 5.67876 10.9949C4.51323 9.94393 3.45127 9.13271 4.49896 7.46425C4.78021 7.01654 7.48322 4.38547 7.90718 4.24789C9.35857 3.77763 10.0932 4.9381 10.9909 5.92233C12.7801 7.88435 14.2297 10.283 15.966 12.3049L16.9318 12.3196C17.6899 11.7785 16.0051 3.76613 16.1999 2.12436C16.3159 1.14795 16.8729 0.451761 17.8446 0.222152C19.4649 -0.160682 23.2 -0.270655 23.6769 1.7765L22.6379 11.6027C22.6388 11.7679 22.7861 12.3523 22.8533 12.3997L22.8524 12.3983Z" fill="var(--fill-0, #C68346)"/>
</svg>
