<svg preserveAspectRatio="none" width="100%" height="100%" overflow="visible" style="display: block;" viewBox="0 0 40.4474 40" fill="none" xmlns="http://www.w3.org/2000/svg">
<path id="Vector" d="M23.0526 39.9986C23.8219 38.1884 23.5655 36.0414 23.8013 34.0956C24.4863 34.0722 25.3711 34.0314 25.5173 33.225C25.6894 32.2764 25.6347 28.6043 25.4957 27.5813C25.2278 25.6097 23.5382 24.6749 22.081 23.6223C23.9269 21.6281 23.2089 18.3029 20.2188 18.3029C17.2202 18.3029 16.5999 21.6152 18.3715 23.6141C14.1999 25.5599 14.8466 29.5185 14.9597 33.432L16.599 34.5034C17.1622 36.3116 16.4892 38.3029 17.3846 39.9995H5.18528C4.38864 39.9995 4.17678 38.5128 4.10824 37.8741C3.94095 36.3174 4.08811 30.7369 3.54263 29.8179C2.80974 28.5822 0.734744 30.0474 0.24008 27.946C-0.240684 25.9039 0.0358876 18.8673 0.755834 16.8516C1.73797 14.1019 4.40254 12.2476 6.78862 10.8049C5.24567 8.61435 4.15042 7.06339 4.93508 4.27819C6.45118 -1.1044 14.0216 -1.43644 16.1585 3.66106C17.363 6.53395 16.1522 8.55972 14.4756 10.814C16.8971 12.3842 19.0843 13.7914 20.2179 16.5977C21.4253 13.7981 23.5679 12.389 25.999 10.7829C24.3799 8.7763 23.3177 6.8818 24.1086 4.22932C25.582 -0.709592 32.1986 -1.53466 34.9298 2.88056C36.7239 5.78076 35.6426 8.41838 33.6491 10.8059C36.8275 12.4268 39.8391 15.2044 40.2776 18.9656C40.4598 20.5266 40.5547 26.6379 40.2513 28.0001C39.83 29.8908 37.2891 28.7408 36.8998 30.07L36.3453 38.3834C36.328 38.7159 35.6915 40 35.4978 40H23.0521L23.0526 39.9986Z" fill="var(--fill-0, #C68346)"/>
</svg>
