<svg preserveAspectRatio="none" width="100%" height="100%" overflow="visible" style="display: block;" viewBox="0 0 40.2721 40" fill="none" xmlns="http://www.w3.org/2000/svg">
<g id="Group">
<path id="Vector" d="M8.22516 0H32.0146C33.0276 0.44346 33.5315 1.17339 34.0995 2.06173C35.2339 3.83605 39.6784 11.7557 40.0798 13.3963C40.4983 15.1061 40.2207 15.8062 39.3714 17.2319C35.1518 24.3144 27.8719 31.2177 23.4056 38.3368C21.8228 40.4905 18.6053 40.5716 16.9466 38.4686C12.4381 31.3026 5.12587 24.3652 0.869324 17.2314C-0.21059 15.4215 -0.244754 14.5071 0.547626 12.5644C1.66407 9.82727 4.52565 4.59965 6.14125 2.06173C6.70731 1.17244 7.215 0.443935 8.22611 0.000474752L8.22516 0ZM6.3524 14.5507C8.50654 15.0843 10.0182 14.3923 11.9522 15.9067C14.4204 17.839 13.4753 19.3814 13.8999 21.7623C14.0674 22.6995 14.7564 22.5709 14.8831 21.5285C15.1711 19.1523 14.8128 17.2357 17.0856 15.6833C19.1145 14.2974 20.8069 15.3708 22.6759 14.2045C20.7728 13.2621 18.8877 14.094 17.0633 12.7479C14.5443 10.8902 15.3134 9.21734 14.8731 6.64669C14.8147 6.3071 14.6634 6.00024 14.2667 6.03344C13.6015 7.13616 14.0437 8.46844 13.7903 9.70728C13.0444 13.3508 9.49059 13.9005 6.33436 13.8398L6.35192 14.5502L6.3524 14.5507Z" fill="var(--fill-0, #C68346)"/>
<path id="Vector_2" d="M6.3522 14.5512L6.33464 13.8407C9.49087 13.9019 13.0447 13.3517 13.7906 9.70822C14.0445 8.4689 13.6018 7.13709 14.267 6.03437C14.6636 6.00117 14.815 6.30804 14.8734 6.64763C15.3137 9.21827 14.5446 10.8911 17.0636 12.7489C18.8879 14.0944 20.773 13.2625 22.6762 14.2054C20.8067 15.3712 19.1147 14.2984 17.0858 15.6843C14.8131 17.2366 15.1713 19.1527 14.8833 21.5294C14.7571 22.5719 14.0677 22.7004 13.9002 21.7632C13.4751 19.3818 14.4202 17.8394 11.9525 15.9076C10.0185 14.3937 8.50679 15.0857 6.35266 14.5517L6.3522 14.5512Z" fill="var(--fill-0, #C68346)"/>
</g>
</svg>
