<svg preserveAspectRatio="none" width="100%" height="100%" overflow="visible" style="display: block;" viewBox="0 0 39.7337 40" fill="none" xmlns="http://www.w3.org/2000/svg">
<path id="Vector" d="M12.271 0.051496C12.4928 -0.0103875 12.6687 -0.0211703 12.8924 0.0449326C13.8055 0.315439 19.0358 9.49014 19.7164 9.64578L26.4325 0.236678C27.0745 -0.327775 29.1002 0.863952 28.6152 1.69235L21.8438 12.0794L39.2039 37.1511C40.4631 38.8379 39.3042 39.6293 37.5464 39.7924C34.5448 40.0704 28.474 40.0672 25.4682 39.7948C24.3764 39.6959 23.83 39.4783 23.5345 38.3532C22.8512 35.7508 23.8089 29.3819 19.6906 29.3993C15.9756 29.4148 16.7664 35.9721 16.0872 38.3494C15.7345 39.5838 15.1155 39.6813 13.9143 39.7929C10.9803 40.0648 5.01502 40.0634 2.07953 39.7929C0.385029 39.6368 -0.52295 39.0948 0.31844 37.2894L17.7822 12.0799L10.9901 1.70922C10.508 1.19587 11.9267 0.147603 12.271 0.0519648V0.051496Z" fill="var(--fill-0, #C68346)"/>
</svg>
