<svg preserveAspectRatio="none" width="100%" height="100%" overflow="visible" style="display: block;" viewBox="0 0 801.497 848" fill="none" xmlns="http://www.w3.org/2000/svg">
<path id="Vector" d="M314.88 56.42C331.882 39.2258 369.159 2.67588 393.235 0.217057C423.201 -2.84554 453.009 27.2029 473.451 46.0335C565.595 130.929 642.52 248.943 697.132 361.183C741.721 452.816 780.455 556.9 796.184 657.948C799.791 681.128 808.095 735.458 791.629 753.528C775.364 771.378 710.395 794.033 685.809 802.039C484.186 867.657 286.635 862.118 87.6534 791.154C54.3962 779.288 3.37371 762.243 0.301652 720.732C-1.31337 698.838 3.90913 669.402 7.5956 647.431C42.5907 438.763 166.342 206.592 314.872 56.42H314.88Z" fill="var(--fill-0, white)"/>
</svg>
