<svg preserveAspectRatio="none" width="100%" height="100%" overflow="visible" style="display: block;" viewBox="0 0 81.5986 80" fill="none" xmlns="http://www.w3.org/2000/svg">
<g id="Layer_1" clip-path="url(#clip0_0_5)">
<path id="Vector" d="M15.5032 6.23117C15.9991 5.69262 16.5314 5.54394 17.0171 5.32827C18.0048 4.88947 18.9603 4.39054 19.9134 3.88289C20.3891 3.62948 20.3419 3.4246 19.9213 3.19794C19.3583 2.89455 18.7996 2.58038 18.2211 2.30893C17.4227 1.93442 16.6345 1.54435 15.9045 1.04749C15.7347 0.931777 15.502 0.856708 15.4796 0.552908C16.7848 0.552908 18.0794 0.508323 19.3699 0.561618C22.6949 0.699105 26.0193 0.618023 29.3439 0.586917C29.7385 0.583184 30.0983 0.466019 30.4662 0.250767C31.0557 -0.0943001 31.7419 -0.0397612 32.3871 0.153924C32.8816 0.302403 32.8539 0.758414 32.8576 1.15367C32.8806 3.5372 32.892 5.92073 32.9084 8.30427C32.9094 8.46436 32.9154 8.62466 32.9262 8.78454C32.9492 9.12194 33.1174 9.27643 33.4706 9.26959C34.1514 9.25652 34.8328 9.27435 35.5138 9.27435C40.2616 9.27373 45.0096 9.27477 49.7574 9.26565C50.2238 9.26482 50.5674 9.42263 50.8046 9.82617C51.052 10.2473 50.9438 10.625 50.7038 11.0061C50.3843 11.5138 49.9961 11.819 49.3356 11.7763C48.4576 11.7195 47.5733 11.7682 46.6922 11.7481C46.2936 11.739 46.1684 11.8454 46.3809 12.2207C46.6964 12.7777 46.9896 13.3476 47.3123 13.9002C48.7751 16.4044 49.8714 19.0546 50.4987 21.8907C50.9684 24.0137 51.019 26.171 50.9678 28.3318C50.9253 30.1318 50.8697 31.9324 50.6823 33.7254C50.6615 33.9226 50.6275 34.1194 50.5858 34.3135C50.4383 35.0002 50.0648 35.1428 49.4654 34.7413C45.993 32.3978 42.18 30.9422 38.0307 30.3794C36.549 30.1785 35.0904 29.8069 33.5861 29.7727C31.5437 29.7264 29.5019 29.7638 27.4765 30.041C24.2973 30.4763 21.2174 31.2942 18.2449 32.5189C16.3869 33.2845 14.631 34.2314 12.9453 35.3192C12.4246 35.6552 11.8807 35.9565 11.3396 36.2597C11.186 36.3457 11.0087 36.4061 10.8351 36.4355C10.6874 36.4606 10.4846 36.5336 10.3907 36.3694C10.2972 36.2062 10.4658 36.0797 10.5535 35.9505C11.9634 33.8722 13.1523 31.6701 14.046 29.3268C14.8842 27.1291 15.35 24.8478 15.322 22.4728C15.2992 20.5355 15.4207 18.5912 14.9438 16.6871C14.5425 15.0855 13.99 13.5487 12.9712 12.2145C12.7292 11.8974 12.4563 11.7475 12.0561 11.762C11.4358 11.7844 10.8141 11.7778 10.1933 11.7711C9.44155 11.763 8.82939 11.2108 8.82752 10.5528C8.82545 9.91099 9.51724 9.2727 10.2161 9.2727C14.0224 9.27373 17.8287 9.2783 21.635 9.27518C24.1791 9.2729 26.7231 9.2615 29.2671 9.25009C30.0533 9.24657 30.0815 9.21546 30.0798 8.44466C30.0784 7.84369 30.0489 7.24211 30.0672 6.64197C30.0798 6.22433 29.9208 6.08912 29.506 6.09161C26.8834 6.10841 24.2604 6.05179 21.6406 6.24859C19.6416 6.39873 17.6437 6.15838 15.5039 6.23138L15.5032 6.23117Z" fill="var(--fill-0, #020623)"/>
<path id="Vector_2" d="M58.2366 65.6354C55.3108 65.618 51.9455 65.403 48.5865 64.9161C44.9318 64.3862 41.282 63.8203 37.6109 63.3844C34.1679 62.9755 30.7328 62.6547 27.2689 62.7154C23.2944 62.7851 19.3821 63.2971 15.5559 64.424C13.2775 65.095 11.0159 65.8389 8.65909 66.22C8.34389 66.271 8.16658 66.2592 7.96917 65.9733C7.19588 64.853 6.38526 63.7585 5.59538 62.6497C4.94589 61.7379 4.62011 60.6799 4.29163 59.6312C3.79 58.0301 3.40843 56.3927 2.62208 54.8869C2.14429 53.972 2.27888 52.8856 1.90312 51.9273C1.75879 51.559 2.11194 51.6737 2.26726 51.6866C3.52373 51.7896 4.78435 51.8678 6.03356 52.0306C9.30444 52.4572 12.5635 52.9799 15.84 53.3553C18.6598 53.6782 21.4892 53.909 24.3304 54.0516C28.0743 54.2395 31.818 54.3438 35.5586 54.2416C39.5766 54.1317 43.6102 54.0958 47.5901 53.4113C50.6996 52.8765 53.8287 52.4675 56.922 51.8187C58.845 51.4153 60.6956 50.7787 62.5972 50.3335C65.6203 49.6255 68.492 48.4402 71.4864 47.6521C72.1222 47.4848 72.7377 47.2388 73.3743 47.0758C73.9342 46.9323 74.0464 47.0916 73.9145 47.6492C73.6051 48.9561 72.8314 50.0516 72.2597 51.2326C70.8064 54.2347 69.2601 57.1925 67.7083 60.1457C66.918 61.6495 66.0363 63.1055 65.1949 64.5824C65.1553 64.6519 65.0813 64.7112 65.0668 64.7838C64.8812 65.7205 64.258 65.8003 63.441 65.7298C61.8648 65.5942 60.28 65.5886 58.2364 65.6352L58.2366 65.6354Z" fill="var(--fill-0, #020623)"/>
<path id="Vector_3" d="M10.7776 41.2288C14.2032 41.2288 17.6285 41.2319 21.0539 41.2242C21.4187 41.2234 21.6194 41.3159 21.7546 41.7029C22.2654 43.1665 23.098 44.4682 23.9017 45.7827C24.2043 46.2775 24.7001 46.3735 25.1991 46.4019C27.578 46.5373 29.9593 46.7623 32.3376 46.7405C35.2935 46.7134 38.2457 46.4797 41.1968 46.236C44.6576 45.9502 48.0801 45.4596 51.4055 44.5038C55.5513 43.3123 59.6537 41.9801 63.6249 40.2517C68.066 38.3187 72.466 36.3014 76.816 34.1761C78.1814 33.509 79.4959 32.7388 80.9564 32.2863C81.1337 32.2313 81.3513 32.0493 81.5145 32.2118C81.6988 32.3954 81.5308 32.6293 81.4552 32.8263C81.3691 33.0496 81.2861 33.2904 81.1379 33.4706C79.2408 35.7755 78.5812 38.6945 77.2364 41.2711C76.647 42.4002 76.2497 43.6337 75.4347 44.6477C75.2089 44.9287 74.9673 45.0737 74.6218 45.0498C72.984 44.936 71.4497 45.4049 69.9259 45.9015C65.7455 47.2642 61.5393 48.538 57.2586 49.5492C54.4949 50.202 51.6782 50.5195 48.86 50.832C47.1127 51.0257 45.3784 51.3326 43.6232 51.4636C42.2674 51.5648 40.9129 51.6874 39.5554 51.7581C35.3926 51.975 31.2278 51.9333 27.0637 51.801C24.8048 51.7293 22.5428 51.6828 20.2895 51.5223C17.9591 51.3564 15.6388 51.0564 13.3168 50.7833C10.6998 50.4757 8.10745 49.9801 5.46885 49.8256C4.27853 49.7559 3.10294 49.4569 1.91656 49.2912C1.35977 49.2135 1.36019 48.757 1.2791 48.3999C0.961616 46.9979 0.672954 45.5888 0.399845 44.1774C0.248256 43.3936 0.163026 42.5972 0.020147 41.8115C-0.0663272 41.3368 0.118027 41.2458 0.561181 41.2481C3.96664 41.2653 7.37211 41.2576 10.7776 41.2576C10.7776 41.2481 10.7776 41.2383 10.7776 41.2288Z" fill="var(--fill-0, #020623)"/>
<path id="Vector_4" d="M79.657 30.7764C79.0349 30.7162 78.6364 30.4052 78.2208 30.1424C76.9185 29.319 75.6224 28.4764 74.1932 27.8912C70.9404 26.5595 67.6228 26.4336 64.2134 27.2981C61.9684 27.8674 59.8246 28.6241 57.827 29.8001C57.5288 29.9755 57.1319 30.3426 56.8104 29.996C56.4961 29.6572 56.8778 29.2937 57.0502 28.9698C59.3659 24.6149 60.1987 20.0519 58.7917 15.2477C58.2803 13.5015 57.3368 11.9184 56.3125 10.4048C55.9772 9.90915 55.5845 9.44588 55.4256 8.8503C55.3868 8.70494 55.2502 8.54277 55.4242 8.41151C55.5575 8.31072 55.6964 8.431 55.8176 8.47869C57.4187 9.11035 58.9783 9.83014 60.501 10.6352C64.8175 12.9167 68.7097 15.7527 72.0123 19.3678C73.4189 20.9075 74.7013 22.5441 75.7945 24.3217C76.988 26.2621 78.4078 28.0635 79.3711 30.1451C79.454 30.3245 79.5343 30.5053 79.6568 30.7764H79.657Z" fill="var(--fill-0, #020623)"/>
<path id="Vector_5" d="M57.2918 77.7333C55.6631 77.6309 53.8306 77.5641 52.0059 77.2989C49.3615 76.9144 46.7219 76.5204 44.1082 75.9536C41.9834 75.4929 39.8483 75.0572 37.6898 74.7986C34.2974 74.3921 30.9064 73.956 27.4672 74.204C25.6939 74.332 23.9138 74.4104 22.1524 74.635C18.4504 75.1067 14.8598 76.0254 11.4614 77.6047C9.88326 78.338 8.32196 79.1071 6.74945 79.8522C5.87061 80.2686 5.08737 79.7676 5.04714 78.7994C5.02661 78.303 5.37209 78.0941 5.69829 77.8722C7.42341 76.6983 9.25244 75.7092 11.1571 74.862C15.1267 73.0965 19.3102 72.217 23.6173 71.7884C27.1115 71.4406 30.6082 71.5213 34.1037 71.5916C36.4601 71.6389 38.7828 72.0918 41.1096 72.4538C45.0604 73.0687 49.0013 73.759 52.9818 74.164C57.2429 74.5974 61.4994 74.5974 65.7101 73.7263C69.2406 72.9957 72.6902 71.991 75.9047 70.2974C76.6309 69.9148 77.2294 70.0647 77.5971 70.6399C77.898 71.1109 77.768 71.7544 77.1718 72.2263C75.7672 73.3385 74.2082 74.203 72.5436 74.8548C69.5566 76.0244 66.4589 76.7726 63.2926 77.2868C61.3671 77.5996 59.4332 77.6261 57.2918 77.7337V77.7333Z" fill="var(--fill-0, #020623)"/>
<path id="Vector_6" d="M26.8389 65.3315C30.2123 65.1892 32.5821 65.3858 34.9518 65.621C36.5035 65.7749 38.0592 65.8908 39.6139 66.015C41.2326 66.1444 42.7906 66.6336 44.3984 66.8188C47.6133 67.1891 50.789 67.8535 54.0509 67.8859C55.9303 67.9046 57.8127 67.9446 59.6939 67.9713C62.7469 68.0147 65.6716 67.248 68.6022 66.5384C71.7062 65.7867 74.6639 64.643 77.479 63.1309C77.9976 62.8521 78.4431 62.9789 78.8651 63.4454C79.2721 63.8956 79.1867 64.3367 78.818 64.7253C77.8705 65.7242 76.731 66.472 75.4961 67.056C72.4434 68.4997 69.2409 69.4711 65.9126 70.0484C63.5129 70.4646 61.108 70.7342 58.6679 70.8092C55.483 70.9071 52.3281 70.6408 49.1686 70.3341C46.1422 70.0403 43.1674 69.4283 40.1719 68.9402C35.1239 68.1175 30.0356 67.8181 24.9272 68.0118C18.9912 68.2368 13.3527 69.6861 8.01993 72.3127C7.2485 72.6926 6.47894 73.0812 5.68595 73.4115C5.20195 73.6131 4.68061 73.7199 4.26815 73.1996C3.7209 72.5093 3.74329 72.0566 4.44068 71.5155C5.991 70.313 7.77191 69.5304 9.57439 68.8083C12.7737 67.5265 16.1004 66.7097 19.4855 66.0739C22.249 65.5548 25.0371 65.4406 26.8394 65.3315H26.8389Z" fill="var(--fill-0, #020623)"/>
<path id="Vector_7" d="M30.0703 38.3746C30.0703 36.1125 30.0796 33.8503 30.062 31.5883C30.0587 31.1682 30.1422 31.051 30.5972 31.0931C31.1633 31.1456 31.7502 31.2076 32.3155 30.9732C32.612 30.8503 32.8204 31.0147 32.8802 31.3266C32.9063 31.4624 32.9011 31.6059 32.8982 31.7457C32.8063 36.1488 32.9975 40.554 32.7935 44.9563C32.756 45.767 32.758 45.7802 31.9298 45.7933C30.6893 45.8126 30.0683 45.2017 30.067 43.9603C30.0657 42.0985 30.0668 40.2365 30.0668 38.3748H30.0705L30.0703 38.3746Z" fill="var(--fill-0, #020623)"/>
</g>
<defs>
<clipPath id="clip0_0_5">
<rect width="81.5986" height="80" fill="white"/>
</clipPath>
</defs>
</svg>
